HIERARCHY
ROOT Hips
{
	OFFSET -0.001795 -0.223333 0.028219
	CHANNELS 6 Xposition Yposition Zposition Zrotation Yrotation Xrotation 
	JOINT LeftUpLeg
	{
		OFFSET 0.069520 -0.091406 -0.006815
		CHANNELS 3 Zrotation Yrotation Xrotation
		JOINT LeftLeg
		{
			OFFSET 0.034277 -0.375199 -0.004496
			CHANNELS 3 Zrotation Yrotation Xrotation
			JOINT LeftFoot
			{
				OFFSET -0.013596 -0.397961 -0.043693
				CHANNELS 3 Zrotation Yrotation Xrotation
				JOINT LeftToe
				{
					OFFSET 0.026358 -0.055791 0.119288
					CHANNELS 3 Zrotation Yrotation Xrotation
					End Site
					{
						OFFSET 0.000000 0.000000 0.000000
					}
				}
			}
		}
	}
	JOINT RightUpLeg
	{
		OFFSET -0.067670 -0.090522 -0.004320
		CHANNELS 3 Zrotation Yrotation Xrotation
		JOINT RightLeg
		{
			OFFSET -0.038290 -0.382569 -0.008850
			CHANNELS 3 Zrotation Yrotation Xrotation
			JOINT RightFoot
			{
				OFFSET 0.015774 -0.398415 -0.042312
				CHANNELS 3 Zrotation Yrotation Xrotation
				JOINT RightToe
				{
					OFFSET -0.025372 -0.048144 0.123348
					CHANNELS 3 Zrotation Yrotation Xrotation
					End Site
					{
						OFFSET 0.000000 0.000000 0.000000
					}
				}
			}
		}
	}
	JOINT Spine
	{
		OFFSET -0.002533 0.108963 -0.026696
		CHANNELS 3 Zrotation Yrotation Xrotation
		JOINT Spine1
		{
			OFFSET 0.005487 0.135180 0.001092
			CHANNELS 3 Zrotation Yrotation Xrotation
			JOINT Spine2
			{
				OFFSET 0.001457 0.052922 0.025425
				CHANNELS 3 Zrotation Yrotation Xrotation
				JOINT Neck
				{
					OFFSET -0.002778 0.213870 -0.042857
					CHANNELS 3 Zrotation Yrotation Xrotation
					JOINT Head
					{
						OFFSET 0.005152 0.064970 0.051349
						CHANNELS 3 Zrotation Yrotation Xrotation
						End Site
						{
							OFFSET 0.000000 0.000000 0.000000
						}
					}
				}
				JOINT LeftShoulder
				{
					OFFSET 0.078845 0.121749 -0.034090
					CHANNELS 3 Zrotation Yrotation Xrotation
					JOINT LeftArm
					{
						OFFSET 0.090977 0.030469 -0.008868
						CHANNELS 3 Zrotation Yrotation Xrotation
						JOINT LeftForeArm
						{
							OFFSET 0.259612 -0.012772 -0.027456
							CHANNELS 3 Zrotation Yrotation Xrotation
							JOINT LeftHand
							{
								OFFSET 0.249234 0.008986 -0.001171
								CHANNELS 3 Zrotation Yrotation Xrotation
								End Site
								{
									OFFSET 0.000000 0.000000 0.000000
								}
							}
						}
					}
				}
				JOINT RightShoulder
				{
					OFFSET -0.081759 0.118833 -0.038615
					CHANNELS 3 Zrotation Yrotation Xrotation
					JOINT RightArm
					{
						OFFSET -0.096012 0.032551 -0.009143
						CHANNELS 3 Zrotation Yrotation Xrotation
						JOINT RightForeArm
						{
							OFFSET -0.253742 -0.013329 -0.021401
							CHANNELS 3 Zrotation Yrotation Xrotation
							JOINT RightHand
							{
								OFFSET -0.255298 0.007772 -0.005559
								CHANNELS 3 Zrotation Yrotation Xrotation
								End Site
								{
									OFFSET 0.000000 0.000000 0.000000
								}
							}
						}
					}
				}
			}
		}
	}
}
MOTION
Frames: 13
Frame Time: 0.050000
-2.040780 0.934891 -0.487073 -3.755600 4.115224 4.887769 4.455117 -0.863253 -13.222864 -2.840419 0.104270 11.388869 0.547629 1.963138 1.626049 0.000000 0.000000 0.000000 -0.566925 1.219811 -12.975511 0.507275 0.405177 18.119897 -2.504936 -8.317103 7.665210 0.000000 0.000000 0.000000 5.602722 -1.595727 14.832298 -2.277496 1.141061 -5.571835 -1.953723 10.253794 7.443574 14.379995 -3.495813 -28.384811 0.000000 0.000000 0.000000 -14.923680 -14.783899 3.022790 -51.556425 -17.080306 1.371760 -22.721463 -47.938878 9.945391 0.000000 0.000000 0.000000 19.202454 7.434314 5.923463 58.034948 27.360826 7.616451 22.810493 53.294968 16.310980 0.000000 0.000000 0.000000 
-2.041124 0.933439 -0.490430 -3.829182 2.378073 4.067229 4.844577 -0.768091 -12.822252 -3.548590 0.282027 12.346906 1.302105 3.327572 1.291560 0.000000 0.000000 0.000000 -0.863609 1.442366 -15.612817 1.238260 0.388458 23.969452 -2.107430 -7.600834 7.462799 0.000000 0.000000 0.000000 4.723699 -1.432991 15.156541 -1.850178 0.939180 -4.942392 -1.928210 9.973657 7.435956 14.374845 -3.607514 -28.592131 0.000000 0.000000 0.000000 -14.421567 -14.675299 3.311894 -50.281863 -17.600683 1.478410 -21.032373 -52.492151 10.373436 0.000000 0.000000 0.000000 20.626932 8.207148 6.240129 58.659849 27.464695 7.691373 18.332573 57.744688 15.244980 0.000000 0.000000 0.000000 
-2.042464 0.933127 -0.493722 -3.813395 1.083177 2.666176 5.615042 -0.622642 -11.963713 -4.907920 0.619805 13.468916 1.693336 4.186293 1.503273 0.000000 0.000000 0.000000 -1.208589 1.599690 -17.626852 1.909466 0.359020 29.461653 -1.428469 -6.721355 8.923804 0.000000 0.000000 0.000000 3.417175 -1.251869 16.078651 -1.276675 0.658111 -3.105343 -1.770618 10.151548 6.930104 14.113030 -3.711678 -27.732526 0.000000 0.000000 0.000000 -14.814233 -14.392320 3.225498 -49.097151 -18.531363 1.897856 -17.222154 -59.247879 9.720280 0.000000 0.000000 0.000000 20.530102 6.884416 5.265452 60.131842 27.077256 7.886630 23.083989 63.109515 20.218198 0.000000 0.000000 0.000000 
-2.046612 0.933573 -0.494605 -4.259112 0.161957 1.262393 6.461526 -0.470139 -10.737784 -5.115562 0.706680 14.180160 1.955824 4.732847 1.590423 0.000000 0.000000 0.000000 -2.590566 1.501542 -18.434223 4.123134 -0.385900 32.431571 0.450421 -3.244920 9.686320 0.000000 0.000000 0.000000 2.944027 -1.101476 15.510578 -1.000388 0.525742 -2.749153 -0.827830 9.671299 7.985877 13.183203 -3.705091 -26.329979 0.000000 0.000000 0.000000 -15.617741 -13.937148 3.224025 -47.996392 -19.460803 2.120355 -15.381147 -66.289852 10.237140 0.000000 0.000000 0.000000 19.105699 7.662656 5.212178 62.746806 25.963571 7.910922 29.511959 68.469681 26.904541 0.000000 0.000000 0.000000 
-2.054321 0.933291 -0.493397 -4.454872 -0.870671 0.545853 7.642193 -0.320097 -9.836955 -5.940650 0.949549 14.438576 2.248355 5.342905 1.695816 0.000000 0.000000 0.000000 -5.848860 1.077853 -18.342308 4.363249 -0.350042 32.724414 4.730897 5.532536 9.610839 0.000000 0.000000 0.000000 2.854650 -0.970870 14.191826 -0.534574 0.291866 -1.842247 -0.669316 9.630690 8.106163 12.420159 -3.410527 -26.162879 0.000000 0.000000 0.000000 -14.190257 -12.516455 2.786922 -49.845729 -20.659793 2.576069 -14.324510 -72.874908 10.798487 0.000000 0.000000 0.000000 17.643264 7.163425 4.588522 64.932916 24.189756 7.462541 47.941059 71.737553 42.981683 0.000000 0.000000 0.000000 
-2.066602 0.933185 -0.491645 -4.630706 -2.454086 -0.181699 8.177717 -0.214143 -9.126784 -5.212887 0.857621 15.404199 2.823821 6.542185 1.920101 0.000000 0.000000 0.000000 -8.535548 0.714930 -16.595551 3.299635 0.261777 31.546927 4.428089 6.507591 6.756407 0.000000 0.000000 0.000000 3.623875 -0.970123 13.233575 -1.015346 0.507634 -2.174461 -0.389475 10.152626 9.294794 12.290969 -3.509369 -25.751141 0.000000 0.000000 0.000000 -13.062273 -12.846159 3.144615 -49.791060 -22.936558 3.316953 -7.556794 -79.353432 6.697641 0.000000 0.000000 0.000000 15.876773 6.793966 4.138529 67.715313 23.284585 7.527585 69.840769 72.473604 62.525050 0.000000 0.000000 0.000000 
-2.085234 0.932838 -0.490744 -5.025272 -3.262509 -0.737116 9.730623 -0.058256 -9.203037 -4.975990 0.867748 17.137724 2.976571 7.006282 2.561052 0.000000 0.000000 0.000000 -11.235994 0.412323 -14.824872 2.503395 0.607661 29.959571 1.885362 0.154504 7.983348 0.000000 0.000000 0.000000 4.084899 -0.948453 12.406015 -0.633141 0.318538 -1.390391 -0.270350 10.498398 8.793339 12.027352 -3.700219 -24.088590 0.000000 0.000000 0.000000 -11.918931 -13.293935 3.431588 -50.047837 -25.979808 4.598592 16.764874 -82.048525 -14.200662 0.000000 0.000000 0.000000 15.983986 6.557284 3.990909 68.181240 22.979471 7.458348 83.845875 71.553715 74.654326 0.000000 0.000000 0.000000 
-2.111557 0.929397 -0.491189 -5.585569 -4.162728 -1.486180 11.498857 0.148484 -9.711044 -3.873311 0.649474 20.079610 3.215440 7.530191 2.865658 0.000000 0.000000 0.000000 -13.602435 0.220436 -13.729431 0.880678 1.326632 30.180290 1.184968 -3.469021 12.721462 0.000000 0.000000 0.000000 4.762210 -0.954328 11.792002 -0.932795 0.450855 -0.522161 0.342178 10.844323 8.451527 12.213587 -3.996014 -23.266166 0.000000 0.000000 0.000000 -10.727406 -14.640162 4.135114 -48.229754 -29.130224 5.632022 56.224379 -81.497244 -48.919063 0.000000 0.000000 0.000000 16.367925 7.784596 4.631213 67.988135 24.021821 8.042874 89.464097 70.432007 78.835327 0.000000 0.000000 0.000000 
-2.144563 0.921507 -0.493600 -5.977900 -5.742583 -2.152490 13.719254 0.497725 -10.828384 -3.022995 0.544387 24.203008 3.622101 8.359170 3.227072 0.000000 0.000000 0.000000 -15.739604 0.145210 -12.568746 -0.420210 1.989075 30.302489 2.339854 -2.822044 15.867392 0.000000 0.000000 0.000000 4.216992 -0.897957 12.220356 -0.606345 0.290788 -0.684799 1.266780 11.586437 8.491067 11.350505 -3.791273 -21.989993 0.000000 0.000000 0.000000 -8.419694 -16.600254 5.089387 -45.356326 -32.150003 6.249752 72.993220 -76.448789 -59.926710 0.000000 0.000000 0.000000 16.277104 9.294116 5.372432 67.305932 25.478817 8.792112 93.116069 70.064466 81.957753 0.000000 0.000000 0.000000 
-2.182903 0.907961 -0.498929 -6.195214 -6.024748 -2.792097 17.226549 1.111631 -13.199475 -3.611781 0.891045 29.498080 3.236906 7.676163 3.552631 0.000000 0.000000 0.000000 -18.353657 0.009767 -11.781442 -0.577878 2.220789 31.944277 4.229813 -0.465752 18.075298 0.000000 0.000000 0.000000 4.089929 -0.934124 13.173138 -0.291770 0.144467 -1.587300 1.399731 11.793185 8.962156 11.923265 -3.523095 -24.995783 0.000000 0.000000 0.000000 -6.171354 -17.154020 5.368107 -42.713993 -35.668179 6.858319 74.887560 -71.795620 -57.519209 0.000000 0.000000 0.000000 17.109302 10.585651 6.188049 66.579589 27.795332 9.966665 92.871936 70.209681 81.876433 0.000000 0.000000 0.000000 
-2.224792 0.892060 -0.508021 -5.908783 -7.082991 -3.685903 19.734751 1.768247 -14.916140 -2.886629 0.814710 34.122240 2.954826 7.331295 4.524982 0.000000 0.000000 0.000000 -20.030383 -0.008457 -11.282049 -1.532138 2.950457 34.069767 5.206692 0.744536 18.791779 0.000000 0.000000 0.000000 4.047284 -0.989462 14.683640 -0.528895 0.247564 -0.421275 1.020937 11.639444 7.567601 11.925728 -3.361519 -25.956097 0.000000 0.000000 0.000000 -4.726781 -19.083423 6.141492 -39.692515 -38.032355 7.073394 76.233222 -66.534093 -54.004182 0.000000 0.000000 0.000000 18.490488 12.732003 7.360149 65.909161 29.777774 11.072520 91.464094 70.053603 79.534151 0.000000 0.000000 0.000000 
-2.269790 0.879902 -0.521680 -4.625837 -8.572254 -4.194803 21.758406 2.469488 -16.290390 -2.762717 1.059117 36.923660 2.363276 6.930879 7.763489 0.000000 0.000000 0.000000 -22.923300 -0.060836 -11.982991 -2.184251 3.573945 35.399432 6.873117 2.216138 21.100966 0.000000 0.000000 0.000000 3.971983 -1.028422 16.508514 -1.025048 0.486595 -0.087563 0.279233 11.494090 6.555272 12.559404 -3.071694 -29.501937 0.000000 0.000000 0.000000 -5.064748 -20.065111 6.583428 -37.007506 -40.005869 7.154266 77.161286 -64.192376 -52.468484 0.000000 0.000000 0.000000 17.862510 15.033568 8.274500 66.809066 31.422484 12.521049 89.027571 72.003520 78.505051 0.000000 0.000000 0.000000 
-2.320739 0.876013 -0.540217 -3.453033 -8.606943 -3.619098 22.303674 2.622228 -16.738477 -0.193012 -0.171196 34.612307 1.446164 6.226283 11.683336 0.000000 0.000000 0.000000 -25.188149 -0.178119 -12.791564 -2.560001 3.658566 34.892383 8.006433 2.260760 24.711787 0.000000 0.000000 0.000000 4.631832 -1.156659 17.224268 -1.904816 0.955147 1.552114 -0.058656 10.002533 4.254992 11.221898 -2.595966 -28.956779 0.000000 0.000000 0.000000 -6.089198 -20.930434 7.096195 -36.320673 -40.256475 7.332250 77.669152 -64.729270 -52.847488 0.000000 0.000000 0.000000 17.279477 16.234284 8.425466 66.793756 32.096324 13.187906 88.308572 72.334520 77.003846 0.000000 0.000000 0.000000 
